<svg fill="#000000" xmlns="http://www.w3.org/2000/svg"  viewBox="0 0 80 80" width="80px" height="80px"><path d="M 14 10 C 11.802666 10 10 11.802666 10 14 L 10 66 C 10 68.197334 11.802666 70 14 70 L 66 70 C 68.197334 70 70 68.197334 70 66 L 70 14 C 70 11.802666 68.197334 10 66 10 L 14 10 z M 14 12 L 66 12 C 67.116666 12 68 12.883334 68 14 L 68 66 C 68 67.116666 67.116666 68 66 68 L 14 68 C 12.883334 68 12 67.116666 12 66 L 12 14 C 12 12.883334 12.883334 12 14 12 z M 29 17 L 29 18 L 29 22 L 17.802734 22 L 19.992188 34.050781 L 17.892578 60.291016 L 29 57.646484 L 29 64.34375 L 41 60.744141 L 41 55.099609 L 62.095703 57.109375 L 60.009766 32.068359 L 62.246094 22 L 50.220703 22 L 51.220703 17 L 29 17 z M 31 19 L 48.78125 19 L 47.179688 27 L 39 27 L 39 37 L 46 37 L 46 45 L 39 45 L 39 59.255859 L 31 61.65625 L 31 19 z M 34 21 A 1 1 0 0 0 33 22 A 1 1 0 0 0 34 23 A 1 1 0 0 0 35 22 A 1 1 0 0 0 34 21 z M 20.199219 24 L 29 24 L 29 55.591797 L 20.105469 57.708984 L 22.007812 33.949219 L 20.199219 24 z M 49.820312 24 L 59.753906 24 L 57.990234 31.931641 L 59.904297 54.890625 L 41 53.089844 L 41 47 L 48 47 L 48 35 L 41 35 L 41 29 L 48.820312 29 L 49.820312 24 z M 34 25 A 1 1 0 0 0 33 26 A 1 1 0 0 0 34 27 A 1 1 0 0 0 35 26 A 1 1 0 0 0 34 25 z M 34 29 A 1 1 0 0 0 33 30 A 1 1 0 0 0 34 31 A 1 1 0 0 0 35 30 A 1 1 0 0 0 34 29 z M 34 33 A 1 1 0 0 0 33 34 A 1 1 0 0 0 34 35 A 1 1 0 0 0 35 34 A 1 1 0 0 0 34 33 z M 34 37 A 1 1 0 0 0 33 38 A 1 1 0 0 0 34 39 A 1 1 0 0 0 35 38 A 1 1 0 0 0 34 37 z M 34 41 A 1 1 0 0 0 33 42 A 1 1 0 0 0 34 43 A 1 1 0 0 0 35 42 A 1 1 0 0 0 34 41 z M 34 45 A 1 1 0 0 0 33 46 A 1 1 0 0 0 34 47 A 1 1 0 0 0 35 46 A 1 1 0 0 0 34 45 z M 34 49 A 1 1 0 0 0 33 50 A 1 1 0 0 0 34 51 A 1 1 0 0 0 35 50 A 1 1 0 0 0 34 49 z M 34 53 A 1 1 0 0 0 33 54 A 1 1 0 0 0 34 55 A 1 1 0 0 0 35 54 A 1 1 0 0 0 34 53 z M 34 57 A 1 1 0 0 0 33 58 A 1 1 0 0 0 34 59 A 1 1 0 0 0 35 58 A 1 1 0 0 0 34 57 z"/></svg>